<svg xmlns="http://www.w3.org/2000/svg" width="181" height="48" viewBox="0 0 181 48">
  <g id="Group_1882" data-name="Group 1882" transform="translate(-120.016 -20)">
    <g id="SYMBOL" transform="translate(120.016 20)">
      <g id="Group_1" data-name="Group 1" transform="translate(0 0)">
        <path id="Path_1" data-name="Path 1" d="M456.585,242.543a1.453,1.453,0,0,0-.2.2,6.265,6.265,0,0,0-1,5.077,6.724,6.724,0,0,0,5.015,5.043,4.457,4.457,0,0,0,.784.1.44.44,0,0,0,.45-.3,4.149,4.149,0,0,0,.153-.48c.278-1.044.567-2.085.826-3.134.449-1.818.891-3.637,1.247-5.476a2.412,2.412,0,0,1,.189-.765l-.017-.246-.018,0,.032.248c-.065.016-.159.011-.19.053a1.318,1.318,0,0,0-.157.321c-.291.787-.586,1.573-.866,2.364-.671,1.9-1.271,3.822-1.861,5.747a2.344,2.344,0,0,1-.154.4.24.24,0,0,1-.169.1.761.761,0,0,1-.282-.037,6.262,6.262,0,0,1-4.469-5.825,6.7,6.7,0,0,1,.477-2.673c.068-.179.151-.353.212-.534a.6.6,0,0,0-.011-.207.191.191,0,0,0,.059.017c.013,0,.036-.027.035-.029C456.643,242.483,456.615,242.493,456.585,242.543Z" transform="translate(-440.947 -228.489)" fill="#cf1b57"/>
        <path id="Path_2" data-name="Path 2" d="M546.1,265.327a1.1,1.1,0,0,0-1.155,1.116,1.131,1.131,0,0,0,1.137,1.152,1.147,1.147,0,0,0,1.126-1.1A1.112,1.112,0,0,0,546.1,265.327Z" transform="translate(-515.145 -247.483)" fill="#cf1b57"/>
        <path id="Path_3" data-name="Path 3" d="M422.078,186.547a23.994,23.994,0,0,1-21.65,24.406,25.419,25.419,0,0,1-2.863.113,24.2,24.2,0,0,1-5.006-.626,3.023,3.023,0,0,1-.359-.114.552.552,0,0,1-.286-.752.479.479,0,0,1,.33-.283,6.98,6.98,0,0,1,.745-.115,14.4,14.4,0,0,0,3.641-.936,1.555,1.555,0,0,0,.943-.918,1.478,1.478,0,0,0,.055-.962,1.129,1.129,0,0,0-.607-.733,2.836,2.836,0,0,0-1.084-.3c-.552-.041-1.1-.091-1.656-.123a9.774,9.774,0,0,1-4.481-1.444,5.622,5.622,0,0,1-2.651-3.784,4.908,4.908,0,0,1-.04-1.654.674.674,0,0,1,.441-.565c.162-.067.331-.119.494-.185a5.391,5.391,0,0,0,3.064-3.056,10.9,10.9,0,0,1,.563-1.234,7.052,7.052,0,0,1,4.546-3.47c.291-.076.591-.12.885-.187a.374.374,0,0,0,.274-.238c.061-.164.113-.333.161-.5q.514-1.815,1.024-3.63c.041-.145.085-.289.127-.434a.374.374,0,0,1,.506-.309,3.348,3.348,0,0,1,.361.1,5.492,5.492,0,0,1,3.676,5.2,6.494,6.494,0,0,1-.14,1.272.358.358,0,0,0,.167.389,7.646,7.646,0,0,0,2.174,1.028A8.45,8.45,0,0,0,416,186.8c.014-.048.034-.1.046-.144.136-.525.015-.688-.427-.9l-4.636-2.2c-.25-.119-.5-.235-.747-.361a3.362,3.362,0,0,1-1.874-2.412,12.6,12.6,0,0,0-1.01-2.994,11.961,11.961,0,0,0-21.361-.253c-.151.29-.287.588-.43.881a24.094,24.094,0,0,1-9.852,10.529,5.728,5.728,0,0,1-.6.314.722.722,0,0,1-.971-.557,2.032,2.032,0,0,1-.02-.225,26.329,26.329,0,0,1,.038-3.471,23.994,23.994,0,0,1,18.279-21.277,24.714,24.714,0,0,1,3.271-.545,23.121,23.121,0,0,1,3.919-.071,23.78,23.78,0,0,1,7.677,1.794,24.043,24.043,0,0,1,13.991,16.115,21.416,21.416,0,0,1,.683,4.164C422,185.644,422.044,186.1,422.078,186.547Zm-28,7.157a1.235,1.235,0,1,0,1.273,1.221A1.245,1.245,0,0,0,394.08,193.7Z" transform="translate(-374.081 -163.068)" fill="#cf1b57"/>
        <path id="Path_4" data-name="Path 4" d="M464.042,242.951a2.4,2.4,0,0,0-.189.764c-.356,1.839-.8,3.659-1.247,5.476-.259,1.049-.548,2.09-.826,3.134a4.151,4.151,0,0,1-.153.48.44.44,0,0,1-.45.3,4.46,4.46,0,0,1-.784-.1,6.724,6.724,0,0,1-5.015-5.043,6.265,6.265,0,0,1,1-5.077,1.453,1.453,0,0,1,.2-.2l-.016-.019a.578.578,0,0,1,.013.209c-.061.181-.144.355-.212.534a6.7,6.7,0,0,0-.477,2.673,6.263,6.263,0,0,0,4.469,5.825.761.761,0,0,0,.282.037.24.24,0,0,0,.169-.1,2.344,2.344,0,0,0,.154-.4c.591-1.925,1.19-3.848,1.861-5.747.279-.791.575-1.577.866-2.364a1.318,1.318,0,0,1,.157-.321c.03-.042.125-.037.19-.053Z" transform="translate(-440.947 -228.628)" fill="#cf1b57"/>
        <path id="Path_5" data-name="Path 5" d="M546.1,265.327a1.112,1.112,0,0,1,1.108,1.17,1.147,1.147,0,0,1-1.126,1.1,1.131,1.131,0,0,1-1.137-1.152A1.1,1.1,0,0,1,546.1,265.327Z" transform="translate(-515.145 -247.483)" fill="#cf1b57"/>
        <path id="Path_6" data-name="Path 6" d="M508.1,243.15l-.032-.248.018,0,.017.247Z" transform="translate(-484.754 -229)" fill="#cf1b57"/>
        <path id="Path_7" data-name="Path 7" d="M463.384,242.543c.03-.05.058-.06.08-.028,0,0-.022.028-.035.029a.179.179,0,0,1-.06-.018Z" transform="translate(-447.83 -228.669)" fill="#cf1b57"/>
      </g>
    </g>
    <g id="Group_18" data-name="Group 18" transform="translate(188.016 41.002)">
      <g id="Group_17" data-name="Group 17" transform="translate(-4 -7.001)">
        <path id="TEXT" d="M-136.63-147.461v5.706a8.5,8.5,0,0,1-1.038.183,11.1,11.1,0,0,1-1.435.092,3.46,3.46,0,0,1-2.245-.549,2.556,2.556,0,0,1-.626-1.983v-14.463a1.341,1.341,0,0,1,.351-.992,2.509,2.509,0,0,1,.962-.564,11.5,11.5,0,0,1,2.459-.534,22.158,22.158,0,0,1,2.581-.168q4.215,0,6.444,1.8a5.943,5.943,0,0,1,2.229,4.882,6.286,6.286,0,0,1-.565,2.7,6.084,6.084,0,0,1-1.588,2.075,7.21,7.21,0,0,1-2.489,1.343,10.609,10.609,0,0,1-3.268.473Zm1.435-4.18a3.131,3.131,0,0,0,2.046-.626,2.176,2.176,0,0,0,.763-1.785,2.241,2.241,0,0,0-.718-1.785,3.1,3.1,0,0,0-2.092-.626q-.489,0-.809.015a5.01,5.01,0,0,0-.657.076v4.73Zm14.263,4.546a2.651,2.651,0,0,0,1.435,1.541,5.565,5.565,0,0,0,2.26.442,9.14,9.14,0,0,0,2.443-.32,7.434,7.434,0,0,0,1.863-.748,2.556,2.556,0,0,1,.825.854,2.187,2.187,0,0,1,.336,1.16,2.072,2.072,0,0,1-.428,1.312,3.237,3.237,0,0,1-1.206.915,6.836,6.836,0,0,1-1.848.534,15.217,15.217,0,0,1-2.352.168,10.717,10.717,0,0,1-3.344-.5,7.426,7.426,0,0,1-2.672-1.51,6.929,6.929,0,0,1-1.771-2.533,9.162,9.162,0,0,1-.641-3.57,8.344,8.344,0,0,1,.657-3.463,6.752,6.752,0,0,1,1.741-2.38,7.056,7.056,0,0,1,2.459-1.373,9.114,9.114,0,0,1,2.81-.442,8.491,8.491,0,0,1,2.947.488,7.09,7.09,0,0,1,2.291,1.343,5.806,5.806,0,0,1,1.481,2.044,6.415,6.415,0,0,1,.519,2.594,2.081,2.081,0,0,1-.58,1.587,2.9,2.9,0,0,1-1.619.7Zm2.6-6.133a2.789,2.789,0,0,0-1.939.7,3.044,3.044,0,0,0-.932,1.983l5.192-.854a1.891,1.891,0,0,0-.183-.626,2.146,2.146,0,0,0-.428-.6,2.024,2.024,0,0,0-.7-.442A2.752,2.752,0,0,0-118.336-153.228Zm15.057,11.961a6.257,6.257,0,0,1-4.138-1.221,4.912,4.912,0,0,1-1.451-3.967V-160q.336-.092.962-.2a7.9,7.9,0,0,1,1.329-.107,3.577,3.577,0,0,1,2.168.519,2.309,2.309,0,0,1,.672,1.922v1.648h4a5.223,5.223,0,0,1,.351.839,3.5,3.5,0,0,1,.168,1.114,2.116,2.116,0,0,1-.473,1.541,1.714,1.714,0,0,1-1.267.473h-2.779v5.431a1.255,1.255,0,0,0,.5,1.129,2.549,2.549,0,0,0,1.42.336,6.139,6.139,0,0,0,.947-.076,5.327,5.327,0,0,0,.855-.2,3.732,3.732,0,0,1,.473.748,2.267,2.267,0,0,1,.2.992,2.358,2.358,0,0,1-.87,1.892A4.86,4.86,0,0,1-103.279-141.266Z" transform="translate(216.217 160.734)" fill="#cf1b57"/>
        <path id="TEXT-2" data-name="TEXT" d="M-753.364-143.989h-5.528q-.306,1.1-.534,2.044t-.443,1.77a7.777,7.777,0,0,1-.9.259,5.285,5.285,0,0,1-1.146.107,4,4,0,0,1-2.306-.534,1.717,1.717,0,0,1-.748-1.48,3.1,3.1,0,0,1,.122-.854q.122-.427.275-1.007.213-.824.6-2.06t.84-2.655q.458-1.419.977-2.9t.977-2.807q.458-1.327.84-2.38t.6-1.6a6.466,6.466,0,0,1,1.573-.58,8.385,8.385,0,0,1,2.123-.275,7.646,7.646,0,0,1,2.7.442,2.343,2.343,0,0,1,1.512,1.419q.55,1.556,1.191,3.662t1.283,4.348q.641,2.243,1.252,4.424t1.069,3.86a2.52,2.52,0,0,1-1.1.687,5.23,5.23,0,0,1-1.741.259,3.3,3.3,0,0,1-2.077-.488,2.923,2.923,0,0,1-.855-1.556Zm-2.718-10.161q-.428,1.251-.947,2.777t-1.008,3.265h3.787q-.428-1.739-.87-3.28t-.779-2.761Zm33.5,13.975a8.652,8.652,0,0,1-.962.183,9.418,9.418,0,0,1-1.359.091,3.728,3.728,0,0,1-2.2-.5,2.3,2.3,0,0,1-.672-1.938v-7.293a1.644,1.644,0,0,0-.489-1.327,1.923,1.923,0,0,0-1.283-.412,2.726,2.726,0,0,0-.993.183,3.55,3.55,0,0,0-.809.427,1.626,1.626,0,0,0,.015.229,1.4,1.4,0,0,1,.016.2v10.161a8.673,8.673,0,0,1-.962.183,9.419,9.419,0,0,1-1.359.091,3.727,3.727,0,0,1-2.2-.5,2.3,2.3,0,0,1-.672-1.938v-7.293a1.57,1.57,0,0,0-.535-1.327,2.062,2.062,0,0,0-1.3-.412,2.751,2.751,0,0,0-1.007.168,5.978,5.978,0,0,0-.7.32v10.71a8.665,8.665,0,0,1-.962.183,9.414,9.414,0,0,1-1.359.091,3.728,3.728,0,0,1-2.2-.5,2.3,2.3,0,0,1-.672-1.938v-9.185a2.35,2.35,0,0,1,.351-1.343,3.7,3.7,0,0,1,.962-.946,8.55,8.55,0,0,1,2.565-1.175,11.576,11.576,0,0,1,3.237-.442,8.484,8.484,0,0,1,2.4.336,7.383,7.383,0,0,1,2.153,1.037,9.892,9.892,0,0,1,2.062-.976,8.487,8.487,0,0,1,2.764-.4,8.58,8.58,0,0,1,2.275.305,5.813,5.813,0,0,1,1.985.961,4.648,4.648,0,0,1,1.39,1.739,6.07,6.07,0,0,1,.519,2.639Zm9.254-3.265a6.86,6.86,0,0,0,1.146-.107,2.8,2.8,0,0,0,.932-.29v-2.441l-2.2.183a3.383,3.383,0,0,0-1.4.366.986.986,0,0,0-.549.915,1.214,1.214,0,0,0,.473.992A2.594,2.594,0,0,0-713.325-143.439Zm-.244-11.992a12.549,12.549,0,0,1,3.008.336,6.729,6.729,0,0,1,2.321,1.022,4.612,4.612,0,0,1,1.481,1.739,5.561,5.561,0,0,1,.519,2.487v6.835a1.89,1.89,0,0,1-.443,1.3,4.4,4.4,0,0,1-1.054.87,10.921,10.921,0,0,1-5.589,1.19,12.776,12.776,0,0,1-2.917-.305,6.934,6.934,0,0,1-2.23-.915,4.206,4.206,0,0,1-1.435-1.556,4.6,4.6,0,0,1-.5-2.2,4.13,4.13,0,0,1,1.252-3.234,6.757,6.757,0,0,1,3.879-1.4l4-.427v-.214a1.308,1.308,0,0,0-.779-1.266,5.245,5.245,0,0,0-2.245-.381,10.47,10.47,0,0,0-2.245.244,11.917,11.917,0,0,0-2,.61,2.116,2.116,0,0,1-.672-.839,2.65,2.65,0,0,1-.275-1.175,1.956,1.956,0,0,1,.382-1.266,2.956,2.956,0,0,1,1.176-.809,9.184,9.184,0,0,1,2.092-.488A18.181,18.181,0,0,1-713.569-155.431Zm15.393,15.257a8.649,8.649,0,0,1-.962.183,9.414,9.414,0,0,1-1.359.091,3.727,3.727,0,0,1-2.2-.5,2.3,2.3,0,0,1-.672-1.938V-151.4a2.625,2.625,0,0,1,.458-1.541,4.145,4.145,0,0,1,1.252-1.144,8.714,8.714,0,0,1,2.489-.976,12.911,12.911,0,0,1,2.978-.336q3.329,0,3.329,2.35a3.312,3.312,0,0,1-.153,1.022,3.514,3.514,0,0,1-.367.809,8.716,8.716,0,0,0-1.68-.122,7.659,7.659,0,0,0-1.634.183,5.2,5.2,0,0,0-1.481.549Z" transform="translate(764.97 159.154)" fill="#1f2a3b"/>
      </g>
    </g>
  </g>
</svg>
